<?xml version="1.0" encoding="utf-8"?>
<!-- Generator: Adobe Illustrator 20.1.0, SVG Export Plug-In . SVG Version: 6.00 Build 0)  -->
<svg version="1.1" id="Layer_1" xmlns="http://www.w3.org/2000/svg" xmlns:xlink="http://www.w3.org/1999/xlink" x="0px" y="0px"
	 viewBox="0 0 50 50" style="enable-background:new 0 0 50 50;" xml:space="preserve">
<style type="text/css">
	.st0{fill:url(#SVGID_1_);}
</style>
<linearGradient id="SVGID_1_" gradientUnits="userSpaceOnUse" x1="7.6532" y1="12.9729" x2="51.2395" y2="44.1797">
	<stop  offset="0" style="stop-color:#220C3C"/>
	<stop  offset="0.1217" style="stop-color:#230C3C"/>
	<stop  offset="0.1655" style="stop-color:#290E3D"/>
	<stop  offset="0.1967" style="stop-color:#321040"/>
	<stop  offset="0.222" style="stop-color:#3E1343"/>
	<stop  offset="0.2436" style="stop-color:#4E1646"/>
	<stop  offset="0.2624" style="stop-color:#62194A"/>
	<stop  offset="0.2653" style="stop-color:#66194B"/>
	<stop  offset="0.2699" style="stop-color:#6F1A4D"/>
	<stop  offset="0.2844" style="stop-color:#8A1C51"/>
	<stop  offset="0.3009" style="stop-color:#A31D54"/>
	<stop  offset="0.3194" style="stop-color:#B81C56"/>
	<stop  offset="0.3411" style="stop-color:#C91B57"/>
	<stop  offset="0.368" style="stop-color:#D71958"/>
	<stop  offset="0.4057" style="stop-color:#DF195A"/>
	<stop  offset="0.5102" style="stop-color:#E2195A"/>
	<stop  offset="0.5165" style="stop-color:#D03463"/>
	<stop  offset="0.5304" style="stop-color:#A95176"/>
	<stop  offset="0.5433" style="stop-color:#895E86"/>
	<stop  offset="0.5548" style="stop-color:#6F6591"/>
	<stop  offset="0.5646" style="stop-color:#5B6998"/>
	<stop  offset="0.5714" style="stop-color:#546A9A"/>
	<stop  offset="0.6185" style="stop-color:#3D6CA0"/>
	<stop  offset="0.6789" style="stop-color:#256EA5"/>
	<stop  offset="0.7639" style="stop-color:#0A6FA7"/>
	<stop  offset="1" style="stop-color:#0070A8"/>
</linearGradient>
<path class="st0" d="M17.8,4.3v11.9c0,2.4-1.9,4.3-4.3,4.3H4.3C1.9,20.6,0,22.6,0,25v0c0,2.4,1.9,4.3,4.3,4.3h9.1
	c2.4,0,4.3,1.9,4.3,4.3v11.9c0,2.4,1.9,4.3,4.3,4.3h4.8c2.4,0,4.3-1.9,4.3-4.3v-12c0-2.4,1.9-4.3,4.3-4.3h9.9c2.4,0,4.3-1.9,4.3-4.3
	v-0.3c0-2.4-2-4.4-4.4-4.3l-10.2,0c-2.4,0-4.4-1.9-4.4-4.3V4.3C30.9,1.9,29,0,26.6,0h-4.5C19.7,0,17.8,1.9,17.8,4.3z"/>
</svg>
