<?xml version="1.0" encoding="utf-8"?>
<!-- Generator: Adobe Illustrator 20.1.0, SVG Export Plug-In . SVG Version: 6.00 Build 0)  -->
<svg version="1.1" id="Layer_1" xmlns="http://www.w3.org/2000/svg" xmlns:xlink="http://www.w3.org/1999/xlink" x="0px" y="0px"
	 viewBox="0 0 827.6 415.6" style="enable-background:new 0 0 827.6 415.6;" xml:space="preserve">
<style type="text/css">
	.st0{fill:url(#SVGID_1_);}
	.st1{opacity:0.14;}
	.st2{fill:none;stroke:#FFFFFF;stroke-miterlimit:10;}
	.st3{opacity:0.2;fill:#F4F3B6;}
	.st4{opacity:0.17;fill:#F6F088;}
	.st5{opacity:0.89;fill:url(#SVGID_2_);}
</style>
<linearGradient id="SVGID_1_" gradientUnits="userSpaceOnUse" x1="92.516" y1="532.6024" x2="742.7648" y2="-117.6464">
	<stop  offset="0" style="stop-color:#FAA51A"/>
	<stop  offset="1" style="stop-color:#F26129"/>
</linearGradient>
<rect x="-12.9" y="-12.2" class="st0" width="861.1" height="439.4"/>
<g class="st1">
	<g>
		<path class="st2" d="M30.2-76"/>
	</g>
</g>
<path class="st3" d="M907.6,188h-192c-61.3,0-111-49.7-111-111V-70h303V188z"/>
<path class="st4" d="M937.6,258.5H636.1c-61.3,0-111-49.7-111-111v-258h412.5V258.5z"/>
<linearGradient id="SVGID_2_" gradientUnits="userSpaceOnUse" x1="-101.0858" y1="289.3861" x2="681.5699" y2="289.3861" gradientTransform="matrix(0.8083 -3.485378e-02 3.970674e-02 0.9208 -20.7335 55.2285)">
	<stop  offset="0.4235" style="stop-color:#FAA51A"/>
	<stop  offset="1" style="stop-color:#F26129"/>
</linearGradient>
<path class="st5" d="M-56.6,59c0,0-26.8,370.1,234.7,163.9c79.8-62.9,180.6-58.6,207.1-23.1c23.4,31.3,6,66.5-4.1,124
	C364.5,418,560.8,483.1,547.3,441.9c-16.2-49.7-75.2,96.5-46.9,101.2C625.1,563.9-79.6,589-79.6,589L-56.6,59z"/>
</svg>
