<?xml version="1.0" encoding="utf-8"?>
<!-- Generator: Adobe Illustrator 20.1.0, SVG Export Plug-In . SVG Version: 6.00 Build 0)  -->
<svg version="1.1" id="Layer_1" xmlns="http://www.w3.org/2000/svg" xmlns:xlink="http://www.w3.org/1999/xlink" x="0px" y="0px"
	 viewBox="0 0 827.6 415.6" style="enable-background:new 0 0 827.6 415.6;" xml:space="preserve">
<style type="text/css">
	.st0{fill:url(#SVGID_1_);}
	.st1{opacity:0.14;}
	.st2{fill:none;stroke:#FFFFFF;stroke-miterlimit:10;}
	.st3{opacity:9.000000e-02;fill:#FFFFFF;}
	.st4{opacity:0.33;fill:url(#SVGID_2_);}
</style>
<linearGradient id="SVGID_1_" gradientUnits="userSpaceOnUse" x1="92.516" y1="-117.6464" x2="742.7648" y2="532.6024">
	<stop  offset="0" style="stop-color:#282C54"/>
	<stop  offset="1" style="stop-color:#68B9E8"/>
</linearGradient>
<rect x="-12.9" y="-12.2" class="st0" width="861.1" height="439.4"/>
<g class="st1">
	<g>
		<path class="st2" d="M30.2-76"/>
	</g>
</g>
<path class="st3" d="M236.9-166.4c0,0-71.2,462,148,241.7c67.7-68.1,57.8,141.3,234.3,69.8c101.6-41.1-5.6,88.3,2.9,119.3
	c0.5,1.9,1.1,3.8,1.5,5.8c4.8,26.3-1.5,155.1,230.9,18.2c264.5-155.8,90.8-360.8,90.8-360.8L236.9-166.4z"/>
<path class="st3" d="M152.1-189.6c0,0-74,475,149.5,247.9c69.1-70.2,58.2,145,237.9,70.9c103.4-42.6-6,90.7,2.5,122.6
	c0.5,2,1.1,3.9,1.5,6c4.8,27-2.1,159.4,234.5,17.9c269.3-161,93.5-371,93.5-371L152.1-189.6z"/>
<linearGradient id="SVGID_2_" gradientUnits="userSpaceOnUse" x1="-92.1301" y1="366.4444" x2="168.1665" y2="366.4444" gradientTransform="matrix(0.8008 0.5989 -0.5989 0.8008 227.0247 50.2113)">
	<stop  offset="7.653061e-02" style="stop-color:#282C54"/>
	<stop  offset="1" style="stop-color:#68B9E8"/>
</linearGradient>
<path class="st4" d="M-66.2,288.5c52.5-70.2,141.7-92.2,199.2-49.1s61.7,134.8,9.2,205S0.6,536.6-57,493.5S-118.7,358.7-66.2,288.5z
	"/>
</svg>
