<?xml version="1.0" encoding="utf-8"?>
<!-- Generator: Adobe Illustrator 20.1.0, SVG Export Plug-In . SVG Version: 6.00 Build 0)  -->
<svg version="1.1" id="Layer_1" xmlns="http://www.w3.org/2000/svg" xmlns:xlink="http://www.w3.org/1999/xlink" x="0px" y="0px"
	 viewBox="0 0 1280 800" style="enable-background:new 0 0 1280 800;" xml:space="preserve">
<style type="text/css">
	.st0{fill:url(#SVGID_1_);stroke:#000000;stroke-miterlimit:10;}
	.st1{fill:url(#SVGID_2_);stroke:#000000;stroke-miterlimit:10;}
	.st2{opacity:5.000000e-02;fill:none;stroke:url(#SVGID_3_);stroke-width:79;stroke-miterlimit:10;}
	.st3{opacity:0.24;fill:url(#SVGID_4_);}
	.st4{opacity:0.75;fill:url(#SVGID_5_);}
	.st5{fill:url(#SVGID_6_);}
	.st6{opacity:0.67;fill:url(#SVGID_7_);}
	.st7{fill:none;stroke:url(#SVGID_8_);stroke-width:12;stroke-linecap:round;stroke-miterlimit:10;}
	.st8{opacity:0.35;fill:none;stroke:#110935;stroke-width:2;stroke-miterlimit:10;}
	.st9{fill:url(#SVGID_9_);}
	.st10{fill:url(#SVGID_10_);}
	.st11{fill:url(#SVGID_11_);}
	.st12{display:none;opacity:0.16;fill:url(#SVGID_12_);stroke:#000000;stroke-miterlimit:10;}
	.st13{fill:none;stroke:url(#SVGID_13_);stroke-width:12;stroke-linecap:round;stroke-miterlimit:10;}
	.st14{fill:url(#SVGID_14_);}
</style>
<linearGradient id="SVGID_1_" gradientUnits="userSpaceOnUse" x1="1300.4736" y1="397.5263" x2="-15.3158" y2="397.5263">
	<stop  offset="0" style="stop-color:#451E62"/>
	<stop  offset="1" style="stop-color:#0E0028"/>
</linearGradient>
<rect x="-15.3" y="-26.2" class="st0" width="1315.8" height="847.4"/>
<linearGradient id="SVGID_2_" gradientUnits="userSpaceOnUse" x1="838.6316" y1="169.8947" x2="838.6316" y2="169.8947">
	<stop  offset="0" style="stop-color:#002648"/>
	<stop  offset="1" style="stop-color:#00A0DC"/>
</linearGradient>
<path class="st1" d="M838.6,169.9"/>
<linearGradient id="SVGID_3_" gradientUnits="userSpaceOnUse" x1="-595.6053" y1="202.4451" x2="682.0789" y2="202.4451">
	<stop  offset="0.7245" style="stop-color:#1B0020"/>
	<stop  offset="1" style="stop-color:#5087C7"/>
</linearGradient>
<ellipse class="st2" cx="43.2" cy="202.4" rx="599.3" ry="613.2"/>
<linearGradient id="SVGID_4_" gradientUnits="userSpaceOnUse" x1="325.3715" y1="50.3673" x2="593.9504" y2="50.3673">
	<stop  offset="0" style="stop-color:#6D3F98"/>
	<stop  offset="1" style="stop-color:#1B0020"/>
</linearGradient>
<circle class="st3" cx="459.7" cy="50.4" r="134.3"/>
<linearGradient id="SVGID_5_" gradientUnits="userSpaceOnUse" x1="-419.0343" y1="628.9415" x2="630.9522" y2="628.9415" gradientTransform="matrix(-1 0 0 1 929.8813 0)">
	<stop  offset="0" style="stop-color:#01000A"/>
	<stop  offset="0.1359" style="stop-color:#03000D"/>
	<stop  offset="0.292" style="stop-color:#0F001A"/>
	<stop  offset="0.458" style="stop-color:#1E002A"/>
	<stop  offset="0.6309" style="stop-color:#2E023D"/>
	<stop  offset="0.8093" style="stop-color:#421855"/>
	<stop  offset="0.9898" style="stop-color:#5A2C76"/>
	<stop  offset="1" style="stop-color:#5B2D79"/>
</linearGradient>
<path class="st4" d="M1330.7,344.2c0,0-91.6-9.1-220,160.5C963.4,699.5,816,670.5,816,670.5s-106.6-11.8-205.3,26.3
	c-69.2,26.8-137.4,111-248.2,148.7C-6.4,971,1348.9,885,1348.9,885L1330.7,344.2z"/>
<linearGradient id="SVGID_6_" gradientUnits="userSpaceOnUse" x1="-91.931" y1="313.9857" x2="352.8676" y2="-35.2467" gradientTransform="matrix(0.7889 0.6146 -0.4665 0.5988 -32.0775 -84.5549)">
	<stop  offset="0" style="stop-color:#00AEEF"/>
	<stop  offset="0.1185" style="stop-color:#00A7E7"/>
	<stop  offset="0.2579" style="stop-color:#009BD9"/>
	<stop  offset="0.4079" style="stop-color:#0089C4"/>
	<stop  offset="0.5653" style="stop-color:#0070A8"/>
	<stop  offset="0.7285" style="stop-color:#005287"/>
	<stop  offset="0.8941" style="stop-color:#0C3164"/>
	<stop  offset="1" style="stop-color:#16154D"/>
</linearGradient>
<path class="st5" d="M168,293.1L-263.9-43.4l81.7-104.8l439,342c27,21,31.8,59.9,10.8,86.9l0,0C243.5,311.6,198.9,317.2,168,293.1z"
	/>
<linearGradient id="SVGID_7_" gradientUnits="userSpaceOnUse" x1="448.0276" y1="-615.4042" x2="901.1453" y2="-971.1683" gradientTransform="matrix(-0.866 -0.5 -0.1853 0.3209 1859.6787 957.3069)">
	<stop  offset="0" style="stop-color:#0A001D"/>
	<stop  offset="0.2709" style="stop-color:#09001F"/>
	<stop  offset="0.5892" style="stop-color:#060023"/>
	<stop  offset="0.9301" style="stop-color:#00002C"/>
	<stop  offset="1" style="stop-color:#00002F"/>
</linearGradient>
<path class="st6" d="M1157,250.3l505.6,291.9L1695,486l-509.4-294.1c-14.5-8.3-32.9-3.4-41.3,11.1v0
	C1134.7,219.5,1140.4,240.7,1157,250.3z"/>
<linearGradient id="SVGID_8_" gradientUnits="userSpaceOnUse" x1="218.6112" y1="603.9489" x2="1198.0629" y2="603.9489">
	<stop  offset="0" style="stop-color:#D31872"/>
	<stop  offset="0" style="stop-color:#D41871"/>
	<stop  offset="0" style="stop-color:#D6186E"/>
	<stop  offset="0" style="stop-color:#D9186A"/>
	<stop  offset="0" style="stop-color:#DD1963"/>
	<stop  offset="0" style="stop-color:#E2195B"/>
	<stop  offset="0" style="stop-color:#E81852"/>
	<stop  offset="0.1847" style="stop-color:#E31A52"/>
	<stop  offset="0.3251" style="stop-color:#D61E53"/>
	<stop  offset="0.4509" style="stop-color:#C32355"/>
	<stop  offset="0.5682" style="stop-color:#AA2857"/>
	<stop  offset="0.6796" style="stop-color:#8C2A58"/>
	<stop  offset="0.7865" style="stop-color:#6A2858"/>
	<stop  offset="0.8899" style="stop-color:#462354"/>
	<stop  offset="0.9881" style="stop-color:#1D184E"/>
	<stop  offset="1" style="stop-color:#16154D"/>
</linearGradient>
<path class="st7" d="M1192.1,844.1L890.5,623.9c-28.6-20.8-34.6-61-13.6-89.3l60.1-80.9c18.4-24.8,13.8-59.8-10.5-79l0,0
	c-21.6-17-52.9-13.7-70.5,7.4L638,644.1c-24.9,29.9-68.6,35.7-100.4,13.4l-313-219.9"/>
<ellipse transform="matrix(0.5 -0.866 0.866 0.5 421.5436 830.8696)" class="st8" cx="930.3" cy="50.4" rx="158.2" ry="158.2"/>
<linearGradient id="SVGID_9_" gradientUnits="userSpaceOnUse" x1="910.968" y1="100.9833" x2="1435.2017" y2="100.9833" gradientTransform="matrix(1.056 0.1479 -0.1204 0.86 -114.0707 -184.3098)">
	<stop  offset="0" style="stop-color:#D31872"/>
	<stop  offset="5.368575e-02" style="stop-color:#D6186D"/>
	<stop  offset="0.1484" style="stop-color:#DE1962"/>
	<stop  offset="0.2551" style="stop-color:#E81852"/>
	<stop  offset="0.3343" style="stop-color:#D41F53"/>
	<stop  offset="0.4855" style="stop-color:#A92857"/>
	<stop  offset="0.6928" style="stop-color:#6E2958"/>
	<stop  offset="0.9461" style="stop-color:#281B4F"/>
	<stop  offset="1" style="stop-color:#16154D"/>
</linearGradient>
<path class="st9" d="M890.1-55c0,0-91.2,95.1-41.8,153.9c65.5,78,206.3-3.8,206.3-3.8s141.9-89.6,258.7,89.3s39.4-196.8,39.4-196.8
	L890.1-55z"/>
<linearGradient id="SVGID_10_" gradientUnits="userSpaceOnUse" x1="686.9074" y1="607.0909" x2="1131.7061" y2="257.8585" gradientTransform="matrix(-0.8183 -0.5748 0.4364 -0.6212 1055.422 1637.3204)">
	<stop  offset="0" style="stop-color:#00AEEF"/>
	<stop  offset="0.1185" style="stop-color:#00A7E7"/>
	<stop  offset="0.2579" style="stop-color:#009BD9"/>
	<stop  offset="0.4079" style="stop-color:#0089C4"/>
	<stop  offset="0.5653" style="stop-color:#0070A8"/>
	<stop  offset="0.7285" style="stop-color:#005287"/>
	<stop  offset="0.8941" style="stop-color:#0C3164"/>
	<stop  offset="1" style="stop-color:#16154D"/>
</linearGradient>
<path class="st10" d="M327.5,640.3l448,314.7l-76.4,108.8L243.7,743.8c-28-19.7-34.7-58.3-15.1-86.3l0,0
	C251.2,625.5,295.5,617.7,327.5,640.3z"/>
<linearGradient id="SVGID_11_" gradientUnits="userSpaceOnUse" x1="474.1353" y1="264.0327" x2="99.5" y2="-108.7948" gradientTransform="matrix(-0.7979 0.6028 -0.4576 -0.6057 866.3384 -264.0154)">
	<stop  offset="0" style="stop-color:#D31872"/>
	<stop  offset="5.368575e-02" style="stop-color:#D6186D"/>
	<stop  offset="0.1484" style="stop-color:#DE1962"/>
	<stop  offset="0.2551" style="stop-color:#E81852"/>
	<stop  offset="0.3529" style="stop-color:#CB2154"/>
	<stop  offset="0.5563" style="stop-color:#902A58"/>
	<stop  offset="0.8454" style="stop-color:#422254"/>
	<stop  offset="1" style="stop-color:#16154D"/>
</linearGradient>
<path class="st11" d="M353.6-35.2l436.8-330l80.1,106l-444,335.4c-27.3,20.6-66.1,15.2-86.7-12.1l0,0
	C316.1,33,322.3-11.5,353.6-35.2z"/>
<linearGradient id="SVGID_12_" gradientUnits="userSpaceOnUse" x1="1382.2732" y1="395.5643" x2="-39.3756" y2="395.5643">
	<stop  offset="0" style="stop-color:#451E62"/>
	<stop  offset="1" style="stop-color:#0E0028"/>
</linearGradient>
<rect x="-39.4" y="-60.4" class="st12" width="1421.6" height="912"/>
<linearGradient id="SVGID_13_" gradientUnits="userSpaceOnUse" x1="564.0757" y1="386.0524" x2="1543.5273" y2="386.0524" gradientTransform="matrix(-0.9996 -2.653516e-02 2.653516e-02 -0.9996 672.976 730.8282)">
	<stop  offset="0" style="stop-color:#D31872"/>
	<stop  offset="0" style="stop-color:#D41871"/>
	<stop  offset="0" style="stop-color:#D6186E"/>
	<stop  offset="0" style="stop-color:#D9186A"/>
	<stop  offset="0" style="stop-color:#DD1963"/>
	<stop  offset="0" style="stop-color:#E2195B"/>
	<stop  offset="0" style="stop-color:#E81852"/>
	<stop  offset="0.1847" style="stop-color:#E31A52"/>
	<stop  offset="0.3251" style="stop-color:#D61E53"/>
	<stop  offset="0.4509" style="stop-color:#C32355"/>
	<stop  offset="0.5682" style="stop-color:#AA2857"/>
	<stop  offset="0.6796" style="stop-color:#8C2A58"/>
	<stop  offset="0.7865" style="stop-color:#6A2858"/>
	<stop  offset="0.8899" style="stop-color:#462354"/>
	<stop  offset="0.9881" style="stop-color:#1D184E"/>
	<stop  offset="1" style="stop-color:#16154D"/>
</linearGradient>
<path class="st13" d="M-847.4,64.1l295.7,228.1c28,21.6,33,61.9,11.2,89.7l-62.2,79.3c-19.1,24.3-15.4,59.4,8.4,79.2l0,0
	c21.2,17.6,52.5,15.1,70.6-5.5l224.8-256.1c25.7-29.2,69.5-33.9,100.7-10.7l307,228.1"/>
<linearGradient id="SVGID_14_" gradientUnits="userSpaceOnUse" x1="-331.0336" y1="313.5011" x2="113.765" y2="-35.7313" gradientTransform="matrix(0.7889 0.6146 -0.4665 0.5988 -32.0775 -84.5549)">
	<stop  offset="0" style="stop-color:#00AEEF"/>
	<stop  offset="0.1185" style="stop-color:#00A7E7"/>
	<stop  offset="0.2579" style="stop-color:#009BD9"/>
	<stop  offset="0.4079" style="stop-color:#0089C4"/>
	<stop  offset="0.5653" style="stop-color:#0070A8"/>
	<stop  offset="0.7285" style="stop-color:#005287"/>
	<stop  offset="0.8941" style="stop-color:#0C3164"/>
	<stop  offset="1" style="stop-color:#16154D"/>
</linearGradient>
<path class="st14" d="M-20.4,145.8l-431.9-336.4l81.7-104.8l439,342c27,21,31.8,59.9,10.8,86.9l0,0
	C55.1,164.4,10.5,169.9-20.4,145.8z"/>
</svg>
