<?xml version="1.0" encoding="utf-8"?>
<!-- Generator: Adobe Illustrator 20.1.0, SVG Export Plug-In . SVG Version: 6.00 Build 0)  -->
<svg version="1.1" id="Layer_1" xmlns="http://www.w3.org/2000/svg" xmlns:xlink="http://www.w3.org/1999/xlink" x="0px" y="0px"
	 viewBox="0 0 430.9 188" style="enable-background:new 0 0 430.9 188;" xml:space="preserve">
<style type="text/css">
	.st0{fill:none;stroke:#FFFFFF;stroke-width:49;stroke-miterlimit:10;}
	.st1{fill:none;stroke:#FFFFFF;stroke-width:32;stroke-miterlimit:10;}
</style>
<g>
	<path class="st0" d="M92.1,159.8H27.7v-132h59.7c34.8,0,62.9,28.2,62.9,62.9v3v4.7v3C150.4,133.7,124.3,159.8,92.1,159.8z"/>
	<path class="st0" d="M169.3,55.4"/>
	<path class="st0" d="M216,28.6c36.4,0,66,29.5,66,66s-29.5,66-66,66s-66-29.5-66-66"/>
	<path class="st0" d="M436,205.4"/>
	<path class="st0" d="M306.6,85.7"/>
	<path class="st0" d="M281.7,83.9c0-31.3,25.2-56.7,56.4-56.7h3c35,0,63.3,28.5,63.3,63.7v68.6h-24.3"/>
	<line class="st1" x1="282" y1="113.5" x2="400.6" y2="113.5"/>
</g>
</svg>
