<?xml version="1.0" encoding="utf-8"?>
<!-- Generator: Adobe Illustrator 20.1.0, SVG Export Plug-In . SVG Version: 6.00 Build 0)  -->
<svg version="1.1" id="Layer_1" xmlns="http://www.w3.org/2000/svg" xmlns:xlink="http://www.w3.org/1999/xlink" x="0px" y="0px"
	 viewBox="0 0 500 500" style="enable-background:new 0 0 500 500;" xml:space="preserve">
<style type="text/css">
	.st0{fill:#FFFFFF;stroke:#D1D3D4;stroke-width:6;stroke-miterlimit:10;}
	.st1{fill:#FFFFFF;stroke:#D1D3D4;stroke-width:26;stroke-miterlimit:10;}
	.st2{fill:#D1D3D4;stroke:#D1D3D4;stroke-width:14;stroke-miterlimit:10;}
	.st3{fill:#E6E7E8;}
	.st4{fill:#6D6E71;}
	.st5{font-family:'Somatic-Rounded';}
	.st6{font-size:33.1265px;}
</style>
<rect x="3.4" y="3.9" class="st0" width="493.2" height="291.5"/>
<rect x="3.4" y="6.9" class="st0" width="493.2" height="32"/>
<path class="st1" d="M302.9,244.3c0,26.3-14.3,49.2-35.6,61.4c-10.4,5.9-22.4,9.3-35.2,9.3c-39.1,0-70.7-31.7-70.7-70.7
	s31.7-70.7,70.7-70.7S302.9,205.3,302.9,244.3z"/>
<path class="st2" d="M337.2,348.6l-46.8-48.9c-3.8-3.9-9.9-4.3-14.1-1l0,0c-4.8,3.8-5.4,10.9-1.2,15.4l45.6,49.7
	c3.6,3.9,9.4,4.5,13.8,1.5l1.2-0.9C340.9,360.8,341.7,353.2,337.2,348.6z"/>
<path class="st3" d="M246,204.7c0,0,25.7-4.5,31.9,23.5c0.8,3.4,0.4,7-1,10.3l-4.1,19.4l-2.3-27.1c-1.7-9.4-6.9-13.8-12.2-19.4
	L246,204.7z"/>
<rect x="18.8" y="20.2" class="st2" width="17.9" height="6.8"/>
<rect x="60.1" y="19.8" class="st2" width="17.9" height="6.8"/>
<path class="st0" d="M419.6,29H114.5c-3.3,0-6-2.7-6-6v0c0-3.3,2.7-6,6-6h305.1c3.3,0,6,2.7,6,6v0C425.6,26.4,422.9,29,419.6,29z"/>
<circle class="st0" cx="462.3" cy="23.1" r="6"/>
<text transform="matrix(1 0 0 1 56.8257 456.2587)" class="st4 st5 st6">404 - PAGE NOT FOUND</text>
</svg>
